<svg id="Honey" xmlns="http://www.w3.org/2000/svg" viewBox="0 0 199.93 173.59"><defs><style>.cls-1{fill:#ece6db;}.cls-2{fill:#f8a91c;}.cls-3{fill:#010101;}.cls-4{fill:#ebe5db;}.cls-5{fill:#aed7e4;}</style></defs><title>honey</title><path class="cls-1" d="M184.76,83.22A84.6,84.6,0,1,1,93.62,5.69,84.61,84.61,0,0,1,184.76,83.22Z" transform="translate(-0.79 -3.23)"/><path class="cls-2" d="M100.29,176.82a86.8,86.8,0,0,1-66-143,86.79,86.79,0,1,1,73.09,142.74C105,176.72,102.65,176.82,100.29,176.82Zm.27-169.23c-2.24,0-4.5.09-6.76.27a82.32,82.32,0,1,0,6.76-.27Z" transform="translate(-0.79 -3.23)"/><path class="cls-3" d="M61.62,43.42l-2.76,2.14-3.86-5L50.59,44l3.86,5-2.77,2.15-9.6-12.38,2.77-2.15,4,5.19,4.41-3.42-4-5.19L52,31Z" transform="translate(-0.79 -3.23)"/><path class="cls-3" d="M81.71,27.77a6.69,6.69,0,0,1-.13,5.08,6.66,6.66,0,0,1-8.77,3,6.61,6.61,0,0,1-3.22-3.94l-.91-2.67a6.64,6.64,0,0,1,.15-5.08,6.61,6.61,0,0,1,8.75-3A6.63,6.63,0,0,1,80.8,25.1ZM77.49,26.2a4.66,4.66,0,0,0-1.6-2.36,2.46,2.46,0,0,0-2.38-.33,2.49,2.49,0,0,0-1.71,1.71A4.69,4.69,0,0,0,72,28.08l.92,2.69a4.69,4.69,0,0,0,1.61,2.38,2.54,2.54,0,0,0,2.41.32,2.49,2.49,0,0,0,1.68-1.71,4.8,4.8,0,0,0-.18-2.87Z" transform="translate(-0.79 -3.23)"/><path class="cls-3" d="M107.61,32.23l-3.49,0L98.76,22.11l-.06,0-.16,10L95,32l.25-15.66,3.51.06,5.36,10.07.06,0,.16-10,3.48.05Z" transform="translate(-0.79 -3.23)"/><path class="cls-3" d="M130.3,31.14l-5.59-1.92-1.27,3.69L130,35.18l-.9,2.64-9.91-3.41L124.3,19.6,134.23,23l-.91,2.64-6.61-2.27-1.09,3.18,5.59,1.92Z" transform="translate(-0.79 -3.23)"/><path class="cls-3" d="M148.59,39.22l0,0,6.49-3.7,3.05,2.26L148,42.91l-3.28,4.43-2.8-2.08,3.39-4.57,1.91-11,3,2.25Z" transform="translate(-0.79 -3.23)"/><circle class="cls-2" cx="36.06" cy="58.27" r="4.56"/><circle class="cls-2" cx="163.72" cy="59.91" r="4.56"/><polygon class="cls-1" points="3.77 72.65 196.32 72.65 189.08 87.15 196.32 100.93 3.77 100.93 11.92 86.79 3.77 72.65"/><path class="cls-2" d="M200.71,106.34H.79L10.19,90,.79,73.71H200.63l-8.32,16.64ZM8.32,102H193.5L187.42,90.4l6.17-12.34H8.32l6.9,12Z" transform="translate(-0.79 -3.23)"/><path class="cls-4" d="M154,85.7A53.7,53.7,0,1,1,96.11,36.49,53.7,53.7,0,0,1,154,85.7Z" transform="translate(-0.79 -3.23)"/><path d="M100.39,145.91a55.89,55.89,0,1,1,55.74-60.38h0a56,56,0,0,1-51.2,60.2C103.41,145.85,101.89,145.91,100.39,145.91Zm.12-107.42c-1.4,0-2.81.06-4.23.17a51.53,51.53,0,1,0,55.51,47.22h0a51.54,51.54,0,0,0-51.28-47.39Z" transform="translate(-0.79 -3.23)"/><polygon class="cls-1" points="122.04 47.38 76.53 47.38 53.78 86.79 76.53 126.2 122.04 126.2 144.79 86.79 122.04 47.38"/><path class="cls-2" d="M124.08,131.61h-48L52.05,90l24-41.58h48l24,41.58Zm-45.5-4.36h43L143.06,90,121.57,52.79h-43L57.08,90Z" transform="translate(-0.79 -3.23)"/><polygon points="98.17 104.43 101.12 104.43 99.65 113.76 98.17 104.43"/><path d="M100.44,122.23,98,106.84h4.86Zm-.52-13.76.52,3.28.51-3.28Z" transform="translate(-0.79 -3.23)"/><path class="cls-2" d="M85.77,76.7S86,62.55,100.13,62.34c0,0,12.67-.93,14.27,14.36Z" transform="translate(-0.79 -3.23)"/><path d="M115.31,77.51H84.94l0-.83c0-.15.43-14.93,15.16-15.16,4.6-.33,13.76,2.38,15.1,15.09ZM86.65,75.88h26.83c-1.88-13.41-12.82-12.76-13.29-12.72C88.79,63.33,86.94,72.93,86.65,75.88Z" transform="translate(-0.79 -3.23)"/><path class="cls-2" d="M85.66,77.34s-4.59,33.8,14.55,35c0,0,16.56,2.1,14.56-35Z" transform="translate(-0.79 -3.23)"/><path d="M100.69,113.14a3.64,3.64,0,0,1-.58,0,13.51,13.51,0,0,1-10-5.07c-8-9.75-5.38-30-5.26-30.81l.09-.71h30.6l0,.77c1.09,20.27-3.42,28.94-7.41,32.64A11.09,11.09,0,0,1,100.69,113.14Zm-14.31-35c-.39,3.67-1.76,20.63,5,28.86a12,12,0,0,0,8.89,4.48c.19,0,3.49.36,6.85-2.8,3.65-3.43,7.79-11.52,6.88-30.54Z" transform="translate(-0.79 -3.23)"/><path d="M95.57,62.46s-1-4.12-4.07-2.89c0,0-2.72.94-.54,5Z" transform="translate(-0.79 -3.23)"/><path d="M90.6,65.59l-.36-.67c-.94-1.73-1.18-3.21-.72-4.4a3,3,0,0,1,1.71-1.72,3.28,3.28,0,0,1,2.78.07,5.53,5.53,0,0,1,2.35,3.41l.16.65Zm2-5.43a2.26,2.26,0,0,0-.8.17,1.44,1.44,0,0,0-.77.81,3.27,3.27,0,0,0,.31,2.32L94.56,62a3.34,3.34,0,0,0-1.31-1.7A1.33,1.33,0,0,0,92.6,60.16Z" transform="translate(-0.79 -3.23)"/><path d="M103.77,62.46s1-4.12,4.06-2.89c0,0,2.73.94.54,5Z" transform="translate(-0.79 -3.23)"/><path d="M108.73,65.59l-5.91-2.66.15-.65a5.53,5.53,0,0,1,2.35-3.41,3.35,3.35,0,0,1,2.81-.06,3,3,0,0,1,1.68,1.71c.46,1.19.22,2.67-.72,4.4Zm-4-3.57L108,63.46a3.27,3.27,0,0,0,.31-2.32,1.43,1.43,0,0,0-.75-.8,1.68,1.68,0,0,0-1.47,0A3.34,3.34,0,0,0,104.77,62Z" transform="translate(-0.79 -3.23)"/><rect x="84.99" y="77.71" width="28.63" height="6.13"/><path d="M115.22,87.89H85V80.12h30.26ZM86.59,86.26h27V81.75h-27Z" transform="translate(-0.79 -3.23)"/><polygon points="112.83 94.09 85.87 94.09 85.28 88.78 113.14 88.78 112.83 94.09"/><path d="M114.38,98.14H85.92l-.77-7h29.64Zm-27-1.64h25.46l.22-3.68H87Z" transform="translate(-0.79 -3.23)"/><polygon points="87.46 99.24 110.95 99.24 109.3 103.12 89.8 103.12 87.46 99.24"/><path d="M110.62,107.16H90.12l-3.31-5.51H113Zm-19.57-1.63h18.49l1-2.25H89.69Z" transform="translate(-0.79 -3.23)"/><path class="cls-5" d="M96.46,77.38S88.87,116.75,70.6,96.85C70.6,96.85,56.46,74,96.46,77.38Z" transform="translate(-0.79 -3.23)"/><path d="M80.38,103.28c-3.31,0-6.79-2-10.39-5.88l-.09-.12c-.2-.33-4.85-8-1.1-14.09,3.46-5.65,12.79-7.87,27.72-6.63l.91.08-.17.89c-.18.92-4.46,22.56-14.61,25.44A8.39,8.39,0,0,1,80.38,103.28Zm-9.13-6.92c4,4.28,7.64,6,11,5,8.11-2.29,12.35-19.17,13.26-23.27-13.54-1-22.26,1-25.26,5.92S70.84,95.65,71.25,96.36Z" transform="translate(-0.79 -3.23)"/><path class="cls-5" d="M104.35,77.32s7.78,39.34,26,19.34C130.3,96.66,144.34,73.78,104.35,77.32Z" transform="translate(-0.79 -3.23)"/><path d="M120.51,103.15a8.11,8.11,0,0,1-2.23-.31C108.11,100,103.73,78.4,103.55,77.48l-.18-.89.91-.08c14.93-1.32,24.27.86,27.75,6.49,3.78,6.1-.83,13.77-1,14.09l-.09.12C127.32,101.16,123.83,103.15,120.51,103.15ZM105.35,78.06c.93,4.09,5.25,21,13.37,23.21,3.32.92,7-.79,10.92-5.09.42-.71,4.09-7.35,1-12.33S118.88,77,105.35,78.06Z" transform="translate(-0.79 -3.23)"/><path class="cls-3" d="M20.09,94.26H18.33V87.72H16.64V86.33l3.45-.59Z" transform="translate(-0.79 -3.23)"/><path class="cls-3" d="M27.7,90.89A4,4,0,0,1,27,93.5a2.56,2.56,0,0,1-3.86,0,4,4,0,0,1-.71-2.61V89.1a4.09,4.09,0,0,1,.7-2.6,2.57,2.57,0,0,1,3.87,0,4,4,0,0,1,.71,2.6ZM26,89a3.16,3.16,0,0,0-.23-1.4.73.73,0,0,0-.67-.43.71.71,0,0,0-.66.43,3.35,3.35,0,0,0-.22,1.4v2a3.26,3.26,0,0,0,.23,1.42.73.73,0,0,0,1.32,0A3.26,3.26,0,0,0,26,91Z" transform="translate(-0.79 -3.23)"/><path class="cls-3" d="M33.78,90.89a4,4,0,0,1-.71,2.61,2.56,2.56,0,0,1-3.86,0,4,4,0,0,1-.71-2.61V89.1a4.09,4.09,0,0,1,.7-2.6,2.57,2.57,0,0,1,3.87,0,4.11,4.11,0,0,1,.71,2.6ZM32,89a3.16,3.16,0,0,0-.23-1.4.73.73,0,0,0-.67-.43.71.71,0,0,0-.66.43,3.35,3.35,0,0,0-.22,1.4v2a3.26,3.26,0,0,0,.23,1.42.73.73,0,0,0,1.32,0A3.26,3.26,0,0,0,32,91Z" transform="translate(-0.79 -3.23)"/><path class="cls-3" d="M34.6,87.38A1.84,1.84,0,0,1,35,86.12a1.81,1.81,0,0,1,2.5,0A1.84,1.84,0,0,1,38,87.38v.45a1.82,1.82,0,0,1-.44,1.25,1.56,1.56,0,0,1-1.24.5,1.6,1.6,0,0,1-1.26-.5,1.83,1.83,0,0,1-.44-1.25Zm1.13.45a.83.83,0,0,0,.14.48.51.51,0,0,0,.43.2.5.5,0,0,0,.41-.2.83.83,0,0,0,.14-.48v-.45a.79.79,0,0,0-.15-.49.47.47,0,0,0-.41-.2.5.5,0,0,0-.42.2.86.86,0,0,0-.14.49Zm.84,5.79-.82-.46,3.71-6.66.82.46Zm1.64-1.45a1.79,1.79,0,0,1,.44-1.25,1.56,1.56,0,0,1,1.25-.51,1.6,1.6,0,0,1,1.26.5,1.84,1.84,0,0,1,.43,1.26v.45a1.84,1.84,0,0,1-.43,1.26,1.59,1.59,0,0,1-1.25.49,1.61,1.61,0,0,1-1.26-.49,1.79,1.79,0,0,1-.44-1.26Zm1.13.45a.73.73,0,0,0,.16.48.51.51,0,0,0,.41.2.46.46,0,0,0,.44-.18.88.88,0,0,0,.11-.5v-.45a.83.83,0,0,0-.14-.48.54.54,0,0,0-.84,0,.83.83,0,0,0-.14.48Z" transform="translate(-0.79 -3.23)"/><path class="cls-3" d="M168.52,94.8h-1.76L164,89.37h0V94.8h-1.77V86.28H164l2.78,5.43h0V86.28h1.76Z" transform="translate(-0.79 -3.23)"/><path class="cls-3" d="M173.74,93.14h-2.4l-.42,1.66h-1.78l2.45-8.52h1.9l2.45,8.52h-1.77Zm-2-1.52h1.61l-.8-3.05h0Z" transform="translate(-0.79 -3.23)"/><path class="cls-3" d="M181.21,87.8h-2v7h-1.77v-7h-2V86.28h5.76Z" transform="translate(-0.79 -3.23)"/><path class="cls-3" d="M182.34,94.8h-1.75V93.14h1.75Z" transform="translate(-0.79 -3.23)"/><path class="cls-3" d="M41.17,129.48a1.23,1.23,0,0,0,.53-.94,5.51,5.51,0,0,0-.34-1.66,11.94,11.94,0,0,1-.83-3.65,2.8,2.8,0,0,1,1.23-2.34,2.93,2.93,0,0,1,2.77-.45,5.7,5.7,0,0,1,2.78,2.1,5.09,5.09,0,0,1,1.18,3.26,3.15,3.15,0,0,1-1.37,2.61l0,0-1.66-2.17a1.54,1.54,0,0,0,.64-1.11,1.89,1.89,0,0,0-.46-1.36,2.07,2.07,0,0,0-1.11-.83,1.13,1.13,0,0,0-1,.17,1,1,0,0,0-.38.91,9.81,9.81,0,0,0,.47,1.95,8.35,8.35,0,0,1,.68,3.39,3.11,3.11,0,0,1-1.33,2.34,2.93,2.93,0,0,1-2.75.52,5.55,5.55,0,0,1-2.73-2.08,6.17,6.17,0,0,1-1.34-3.47,3.31,3.31,0,0,1,1.49-3l0,0,1.66,2.18a1.81,1.81,0,0,0-.85,1.36,2.7,2.7,0,0,0,.69,1.64,2,2,0,0,0,1.07.83A1.16,1.16,0,0,0,41.17,129.48Z" transform="translate(-0.79 -3.23)"/><path class="cls-3" d="M43.52,137.27l-1.86-2.13,6.79-5.93,1.86,2.13ZM51.89,130,50,127.83l1.42-1.25,1.86,2.13Z" transform="translate(-0.79 -3.23)"/><path class="cls-3" d="M47.68,141.94a4.16,4.16,0,0,1-1.34-3.15,4.3,4.3,0,0,1,1.4-3l.22-.23a5.13,5.13,0,0,1,3.16-1.59,3.82,3.82,0,0,1,3.09,1.29,3.77,3.77,0,0,1,1.23,2.83,4.14,4.14,0,0,1-1.39,2.83l-1,1-3.62-3.67-.05,0a1.88,1.88,0,0,0-.41,1.2,1.78,1.78,0,0,0,.57,1.22,4.93,4.93,0,0,0,1,.82,8.5,8.5,0,0,0,1.16.56l-.76,1.68a5.26,5.26,0,0,1-1.59-.58A6.83,6.83,0,0,1,47.68,141.94Zm5-5.19a1,1,0,0,0-.95-.35,2.36,2.36,0,0,0-1.08.55v0l1.7,1.73.15-.15a1.64,1.64,0,0,0,.55-.94A1,1,0,0,0,52.66,136.75Z" transform="translate(-0.79 -3.23)"/><path class="cls-3" d="M59.54,140.58l-.67,1a3.08,3.08,0,0,1,1.47-.12,3,3,0,0,1,1.37.65,2.69,2.69,0,0,1,.9,1.2,2.21,2.21,0,0,1,0,1.44,3.09,3.09,0,0,1,1.52-.18,3,3,0,0,1,1.44.65,2.59,2.59,0,0,1,1,2,4.3,4.3,0,0,1-1.16,2.65l-3.43,4.29-2.21-1.77,3.44-4.28a2,2,0,0,0,.54-1.11,1,1,0,0,0-.43-.76,1.67,1.67,0,0,0-.66-.34,1.47,1.47,0,0,0-.66,0l-.15.2-.12.16L58,150.94l-2.2-1.76,3.44-4.29a1.86,1.86,0,0,0,.54-1.1,1,1,0,0,0-.44-.77,1.74,1.74,0,0,0-.63-.33,1.52,1.52,0,0,0-.67,0l-4,5L51.83,146l5.64-7Z" transform="translate(-0.79 -3.23)"/><path class="cls-3" d="M73.74,156a5.32,5.32,0,0,1-2.43,2.36,3.05,3.05,0,0,1-2.86-.24,2.59,2.59,0,0,1-.87-.8,2.55,2.55,0,0,1-.39-1.07L65,160l-2.44-1.42,6.29-10.79,2.28,1.33-.41.9a2.67,2.67,0,0,1,1.21-.28,2.31,2.31,0,0,1,1.18.34,3,3,0,0,1,1.6,2.43,5.78,5.78,0,0,1-.92,3.4Zm-2.34-1.57a4.14,4.14,0,0,0,.64-1.75,1.1,1.1,0,0,0-.57-1.13,1.75,1.75,0,0,0-.79-.26,1.24,1.24,0,0,0-.7.18l-1.9,3.26a1.2,1.2,0,0,0,.24.64,2,2,0,0,0,.63.53,1.1,1.1,0,0,0,1.23,0,3.71,3.71,0,0,0,1.14-1.31Z" transform="translate(-0.79 -3.23)"/><path class="cls-3" d="M80.77,156.64l-.94-.41a1.76,1.76,0,0,0-.79-.17,1,1,0,0,0-.6.25l-2.36,5.43-2.58-1.12,3.58-8.28,2.44,1-.44,1.26a2.64,2.64,0,0,1,1.13-.71,1.66,1.66,0,0,1,1.16.07l.36.19.31.21Z" transform="translate(-0.79 -3.23)"/><path class="cls-3" d="M83.93,164.69a4.18,4.18,0,0,1-2.71-2.08,4.31,4.31,0,0,1-.28-3.34L81,159A5.07,5.07,0,0,1,83,156a4.32,4.32,0,0,1,5.78,1.46,4.14,4.14,0,0,1,.18,3.16l-.41,1.41-5-1.42,0,0a1.83,1.83,0,0,0,.23,1.25,1.73,1.73,0,0,0,1.1.78,5.23,5.23,0,0,0,1.26.24,9.56,9.56,0,0,0,1.29-.08l.16,1.83a5,5,0,0,1-1.67.27A6.81,6.81,0,0,1,83.93,164.69Zm1.79-7a1,1,0,0,0-1,.16,2.4,2.4,0,0,0-.68,1v0l2.33.67.06-.2a1.63,1.63,0,0,0,0-1.09A1,1,0,0,0,85.72,157.72Z" transform="translate(-0.79 -3.23)"/><path class="cls-3" d="M98.94,166.88a4.17,4.17,0,0,1-3.16-1.31,4.42,4.42,0,0,1-1.13-3.16v-.32a5.11,5.11,0,0,1,1.15-3.34,4.3,4.3,0,0,1,6-.08,4.2,4.2,0,0,1,1,3l0,1.47-5.15-.1,0,0a1.75,1.75,0,0,0,1.8,1.62,5.17,5.17,0,0,0,1.29-.1,9.15,9.15,0,0,0,1.22-.41l.63,1.73a5.13,5.13,0,0,1-1.54.69A7,7,0,0,1,98.94,166.88Zm-.06-7.2a1,1,0,0,0-.92.42,2.4,2.4,0,0,0-.4,1.15l0,0,2.42.05v-.22a1.62,1.62,0,0,0-.27-1.05A1,1,0,0,0,98.88,159.68Z" transform="translate(-0.79 -3.23)"/><path class="cls-3" d="M106.29,157.24l.32,1.23a3.2,3.2,0,0,1,.9-1.23,2.82,2.82,0,0,1,1.36-.61,2.59,2.59,0,0,1,2.19.5,4.1,4.1,0,0,1,1.19,2.57l.94,5.52-2.78.47-.94-5.53a1.45,1.45,0,0,0-.5-1,1.24,1.24,0,0,0-1-.16,1.63,1.63,0,0,0-.66.25,1.47,1.47,0,0,0-.45.48L108,166.1l-2.77.47-1.51-8.89Z" transform="translate(-0.79 -3.23)"/><path class="cls-3" d="M119.07,151.3l.83,2.08,1.42-.57.73,1.81-1.42.57,1.55,3.84a1,1,0,0,0,.44.57.71.71,0,0,0,.57,0l.39-.18a2.88,2.88,0,0,0,.34-.2l1,1.85a7.59,7.59,0,0,1-.73.46,6.83,6.83,0,0,1-.8.37,2.76,2.76,0,0,1-2.24.1,3.25,3.25,0,0,1-1.54-1.91L118,156.24l-1.18.48-.73-1.81,1.18-.48-.84-2.08Z" transform="translate(-0.79 -3.23)"/><path class="cls-3" d="M130.91,156.8a2.82,2.82,0,0,1-.49,1.31,3.22,3.22,0,0,1-1.09,1,2.84,2.84,0,0,1-2.37.26,4.17,4.17,0,0,1-2-2.08l-2.63-4.83,2.47-1.34,2.64,4.84a1.81,1.81,0,0,0,.79.86,1,1,0,0,0,.9-.06,2.21,2.21,0,0,0,.64-.49,1.46,1.46,0,0,0,.33-.61L127,149.9l2.48-1.35,4.31,7.92-2.16,1.18Z" transform="translate(-0.79 -3.23)"/><path class="cls-3" d="M141.35,148.7a1.07,1.07,0,0,0,.48-.75,1.3,1.3,0,0,0-.34-.89l2-1.57.05,0a3,3,0,0,1,.65,2.53,4,4,0,0,1-1.57,2.38,4,4,0,0,1-3.29.9,4.83,4.83,0,0,1-2.9-2l-.12-.15a4.85,4.85,0,0,1-1.12-3.3,4.43,4.43,0,0,1,4.48-3.83,3.28,3.28,0,0,1,2.37,1.47l0,.05-2.05,1.56a1.72,1.72,0,0,0-.86-.65,1,1,0,0,0-.93.2,1.13,1.13,0,0,0-.49,1.2,4,4,0,0,0,.82,1.59l.11.16a4,4,0,0,0,1.34,1.21A1.16,1.16,0,0,0,141.35,148.7Z" transform="translate(-0.79 -3.23)"/><path class="cls-3" d="M150.68,143.42a2.5,2.5,0,0,1-.48-.21,4.94,4.94,0,0,1-.49-.3,3,3,0,0,1-.13,1.31,2.68,2.68,0,0,1-.8,1.16,3,3,0,0,1-2.05.85,2.54,2.54,0,0,1-1.92-.94,2.4,2.4,0,0,1-.64-2.21A5.16,5.16,0,0,1,146,140.5l.76-.69-.43-.48a1.31,1.31,0,0,0-.79-.47,1,1,0,0,0-.83.33,1,1,0,0,0-.39.65,1,1,0,0,0,.3.69l-2,1.82,0,0a2.35,2.35,0,0,1-.62-2.22,4.55,4.55,0,0,1,1.57-2.53,4.13,4.13,0,0,1,2.57-1.19,2.9,2.9,0,0,1,2.37,1.07l2.28,2.53a6.93,6.93,0,0,0,1,.92,8,8,0,0,0,1.09.67Zm-2.61-.11a1.69,1.69,0,0,0,.46-.64,1.47,1.47,0,0,0,.13-.7l-.94-1.05-.74.67a1.32,1.32,0,0,0-.51.9,1.19,1.19,0,0,0,.33.81.79.79,0,0,0,.61.29A.93.93,0,0,0,148.07,143.31Z" transform="translate(-0.79 -3.23)"/><path class="cls-3" d="M155.32,135.33a.72.72,0,0,0-.69-.15,4.1,4.1,0,0,0-1.3.66,5.41,5.41,0,0,1-2.35,1,2.18,2.18,0,0,1-1.83-.67,2.53,2.53,0,0,1-.75-2.13,4.12,4.12,0,0,1,1.3-2.52,4.63,4.63,0,0,1,2.58-1.49,2.37,2.37,0,0,1,2.2.72l0,.05-1.91,2a1.09,1.09,0,0,0-.77-.37,1.17,1.17,0,0,0-.8.43,1.1,1.1,0,0,0-.34.7.73.73,0,0,0,.91.82,3.63,3.63,0,0,0,1.29-.68,5.67,5.67,0,0,1,2.41-1.08,2.21,2.21,0,0,1,1.86.71,2.41,2.41,0,0,1,.69,2.17,4.83,4.83,0,0,1-1.43,2.6,4.3,4.3,0,0,1-2.7,1.43,2.57,2.57,0,0,1-2.21-.72l0-.05,1.78-1.83a1.08,1.08,0,0,0,.93.37,1.7,1.7,0,0,0,.94-.55,1.43,1.43,0,0,0,.44-.77A.73.73,0,0,0,155.32,135.33Z" transform="translate(-0.79 -3.23)"/><path class="cls-3" d="M163.59,130a4,4,0,0,1-.5-.15,4.9,4.9,0,0,1-.52-.24,3.05,3.05,0,0,1,0,1.31,2.65,2.65,0,0,1-.65,1.25,3,3,0,0,1-1.94,1.09,2.55,2.55,0,0,1-2-.69,2.42,2.42,0,0,1-.91-2.12,5.25,5.25,0,0,1,1.46-2.79l.68-.77-.49-.42a1.32,1.32,0,0,0-.84-.38,1.06,1.06,0,0,0-.78.43,1,1,0,0,0-.31.7,1,1,0,0,0,.39.64l-1.8,2.05-.05,0a2.34,2.34,0,0,1-.88-2.13,4.58,4.58,0,0,1,1.26-2.7,4.21,4.21,0,0,1,2.4-1.5,2.9,2.9,0,0,1,2.48.79l2.57,2.24a7.47,7.47,0,0,0,1.09.79,7.21,7.21,0,0,0,1.16.53Zm-2.59.2a1.82,1.82,0,0,0,.37-.68,1.62,1.62,0,0,0,0-.72l-1.06-.92-.66.75a1.29,1.29,0,0,0-.39.95,1.17,1.17,0,0,0,.42.77.78.78,0,0,0,.64.21A1,1,0,0,0,161,130.16Z" transform="translate(-0.79 -3.23)"/></svg>